<mxfile host="app.diagrams.net" modified="2024-05-08T06:48:03.961Z" agent="Mozilla/5.0 (Macintosh; Intel Mac OS X 10_15_7) AppleWebKit/537.36 (KHTML, like Gecko) Chrome/124.0.0.0 Safari/537.36" etag="MhAveTXEfZjD9FmHd0_p" version="24.3.1" type="github">
  <diagram name="Page-1" id="e3a06f82-3646-2815-327d-82caf3d4e204">
    <mxGraphModel dx="7615" dy="5082" grid="1" gridSize="10" guides="1" tooltips="1" connect="1" arrows="1" fold="1" page="1" pageScale="1.5" pageWidth="1169" pageHeight="826" background="none" math="0" shadow="0">
      <root>
        <mxCell id="0" style=";html=1;" />
        <mxCell id="1" style=";html=1;" parent="0" />
        <mxCell id="EL_RIF5yjizPgl65kuYD-249" value="" style="rounded=0;whiteSpace=wrap;html=1;" vertex="1" parent="1">
          <mxGeometry x="-1800" y="-1520" width="3550" height="2990" as="geometry" />
        </mxCell>
        <mxCell id="EL_RIF5yjizPgl65kuYD-137" value="" style="image;aspect=fixed;html=1;points=[];align=center;fontSize=12;image=img/lib/azure2/app_services/API_Management_Services.svg;" vertex="1" parent="1">
          <mxGeometry x="-290" y="-900" width="369.05" height="341.91" as="geometry" />
        </mxCell>
        <mxCell id="EL_RIF5yjizPgl65kuYD-140" value="" style="image;aspect=fixed;html=1;points=[];align=center;fontSize=12;image=img/lib/azure2/databases/Virtual_Clusters.svg;" vertex="1" parent="1">
          <mxGeometry x="-242.5" y="-235.76" width="305" height="295.76" as="geometry" />
        </mxCell>
        <mxCell id="EL_RIF5yjizPgl65kuYD-141" value="" style="image;aspect=fixed;html=1;points=[];align=center;fontSize=12;image=img/lib/azure2/databases/Virtual_Clusters.svg;" vertex="1" parent="1">
          <mxGeometry x="-880" y="-235.76" width="304.06" height="294.85" as="geometry" />
        </mxCell>
        <mxCell id="EL_RIF5yjizPgl65kuYD-200" value="" style="group" vertex="1" connectable="0" parent="1">
          <mxGeometry x="240" y="520" width="560" height="460" as="geometry" />
        </mxCell>
        <mxCell id="EL_RIF5yjizPgl65kuYD-201" value="" style="group" vertex="1" connectable="0" parent="EL_RIF5yjizPgl65kuYD-200">
          <mxGeometry width="560" height="460" as="geometry" />
        </mxCell>
        <mxCell id="EL_RIF5yjizPgl65kuYD-202" value="" style="ellipse;whiteSpace=wrap;html=1;fillColor=#b1ddf0;strokeColor=#10739e;" vertex="1" parent="EL_RIF5yjizPgl65kuYD-201">
          <mxGeometry width="560" height="460" as="geometry" />
        </mxCell>
        <mxCell id="EL_RIF5yjizPgl65kuYD-203" value="" style="image;points=[];aspect=fixed;html=1;align=center;shadow=0;dashed=0;image=img/lib/allied_telesis/buildings/Medium_Business_Building.svg;" vertex="1" parent="EL_RIF5yjizPgl65kuYD-201">
          <mxGeometry x="68.88999999999999" y="110" width="101.11" height="130" as="geometry" />
        </mxCell>
        <mxCell id="EL_RIF5yjizPgl65kuYD-204" value="" style="image;points=[];aspect=fixed;html=1;align=center;shadow=0;dashed=0;image=img/lib/allied_telesis/buildings/Medium_Business_Building.svg;" vertex="1" parent="EL_RIF5yjizPgl65kuYD-201">
          <mxGeometry x="120" y="300" width="101.11" height="130" as="geometry" />
        </mxCell>
        <mxCell id="EL_RIF5yjizPgl65kuYD-205" value="" style="image;points=[];aspect=fixed;html=1;align=center;shadow=0;dashed=0;image=img/lib/allied_telesis/buildings/Medium_Business_Building.svg;" vertex="1" parent="EL_RIF5yjizPgl65kuYD-201">
          <mxGeometry x="269.99999999999994" y="220" width="93.34" height="120" as="geometry" />
        </mxCell>
        <mxCell id="EL_RIF5yjizPgl65kuYD-206" value="" style="image;points=[];aspect=fixed;html=1;align=center;shadow=0;dashed=0;image=img/lib/allied_telesis/buildings/Medium_Business_Building.svg;" vertex="1" parent="EL_RIF5yjizPgl65kuYD-201">
          <mxGeometry x="416.65999999999997" y="160" width="93.34" height="120" as="geometry" />
        </mxCell>
        <mxCell id="EL_RIF5yjizPgl65kuYD-207" value="" style="image;points=[];aspect=fixed;html=1;align=center;shadow=0;dashed=0;image=img/lib/allied_telesis/buildings/Medium_Business_Building.svg;" vertex="1" parent="EL_RIF5yjizPgl65kuYD-201">
          <mxGeometry x="262.21999999999997" y="20" width="101.12" height="130" as="geometry" />
        </mxCell>
        <mxCell id="EL_RIF5yjizPgl65kuYD-208" value="" style="endArrow=none;dashed=1;html=1;dashPattern=1 3;strokeWidth=4;rounded=0;" edge="1" parent="EL_RIF5yjizPgl65kuYD-201" target="EL_RIF5yjizPgl65kuYD-207">
          <mxGeometry width="50" height="50" relative="1" as="geometry">
            <mxPoint x="180" y="200" as="sourcePoint" />
            <mxPoint x="330" y="110" as="targetPoint" />
          </mxGeometry>
        </mxCell>
        <mxCell id="EL_RIF5yjizPgl65kuYD-211" value="" style="endArrow=none;dashed=1;html=1;dashPattern=1 3;strokeWidth=4;rounded=0;exitX=0.978;exitY=0.888;exitDx=0;exitDy=0;exitPerimeter=0;" edge="1" parent="EL_RIF5yjizPgl65kuYD-201" source="EL_RIF5yjizPgl65kuYD-203" target="EL_RIF5yjizPgl65kuYD-205">
          <mxGeometry width="50" height="50" relative="1" as="geometry">
            <mxPoint x="210" y="230" as="sourcePoint" />
            <mxPoint x="410" y="190" as="targetPoint" />
          </mxGeometry>
        </mxCell>
        <mxCell id="EL_RIF5yjizPgl65kuYD-210" value="" style="endArrow=none;dashed=1;html=1;dashPattern=1 3;strokeWidth=4;rounded=0;" edge="1" parent="EL_RIF5yjizPgl65kuYD-201" target="EL_RIF5yjizPgl65kuYD-207" source="EL_RIF5yjizPgl65kuYD-206">
          <mxGeometry width="50" height="50" relative="1" as="geometry">
            <mxPoint x="180" y="300" as="sourcePoint" />
            <mxPoint x="282" y="149" as="targetPoint" />
          </mxGeometry>
        </mxCell>
        <mxCell id="EL_RIF5yjizPgl65kuYD-272" value="" style="endArrow=none;dashed=1;html=1;dashPattern=1 3;strokeWidth=4;rounded=0;" edge="1" parent="EL_RIF5yjizPgl65kuYD-201" source="EL_RIF5yjizPgl65kuYD-203" target="EL_RIF5yjizPgl65kuYD-204">
          <mxGeometry width="50" height="50" relative="1" as="geometry">
            <mxPoint x="178" y="235" as="sourcePoint" />
            <mxPoint x="280" y="273" as="targetPoint" />
          </mxGeometry>
        </mxCell>
        <mxCell id="EL_RIF5yjizPgl65kuYD-187" value="" style="group" vertex="1" connectable="0" parent="1">
          <mxGeometry x="-360" y="380" width="540" height="430" as="geometry" />
        </mxCell>
        <mxCell id="EL_RIF5yjizPgl65kuYD-172" value="" style="group" vertex="1" connectable="0" parent="EL_RIF5yjizPgl65kuYD-187">
          <mxGeometry width="540" height="430" as="geometry" />
        </mxCell>
        <mxCell id="EL_RIF5yjizPgl65kuYD-143" value="" style="ellipse;whiteSpace=wrap;html=1;fillColor=#b1ddf0;strokeColor=#10739e;" vertex="1" parent="EL_RIF5yjizPgl65kuYD-172">
          <mxGeometry width="540" height="430" as="geometry" />
        </mxCell>
        <mxCell id="EL_RIF5yjizPgl65kuYD-145" value="" style="image;points=[];aspect=fixed;html=1;align=center;shadow=0;dashed=0;image=img/lib/allied_telesis/buildings/Medium_Business_Building.svg;" vertex="1" parent="EL_RIF5yjizPgl65kuYD-172">
          <mxGeometry x="66.42964285714285" y="102.82608695652175" width="94.5158695652174" height="121.52173913043478" as="geometry" />
        </mxCell>
        <mxCell id="EL_RIF5yjizPgl65kuYD-146" value="" style="image;points=[];aspect=fixed;html=1;align=center;shadow=0;dashed=0;image=img/lib/allied_telesis/buildings/Medium_Business_Building.svg;" vertex="1" parent="EL_RIF5yjizPgl65kuYD-172">
          <mxGeometry x="115.71428571428572" y="280.4347826086957" width="94.5158695652174" height="121.52173913043478" as="geometry" />
        </mxCell>
        <mxCell id="EL_RIF5yjizPgl65kuYD-147" value="" style="image;points=[];aspect=fixed;html=1;align=center;shadow=0;dashed=0;image=img/lib/allied_telesis/buildings/Medium_Business_Building.svg;" vertex="1" parent="EL_RIF5yjizPgl65kuYD-172">
          <mxGeometry x="260.35714285714283" y="205.6521739130435" width="87.25260869565219" height="112.17391304347827" as="geometry" />
        </mxCell>
        <mxCell id="EL_RIF5yjizPgl65kuYD-148" value="" style="image;points=[];aspect=fixed;html=1;align=center;shadow=0;dashed=0;image=img/lib/allied_telesis/buildings/Medium_Business_Building.svg;" vertex="1" parent="EL_RIF5yjizPgl65kuYD-172">
          <mxGeometry x="401.77928571428566" y="149.56521739130434" width="87.25260869565219" height="112.17391304347827" as="geometry" />
        </mxCell>
        <mxCell id="EL_RIF5yjizPgl65kuYD-149" value="" style="image;points=[];aspect=fixed;html=1;align=center;shadow=0;dashed=0;image=img/lib/allied_telesis/buildings/Medium_Business_Building.svg;" vertex="1" parent="EL_RIF5yjizPgl65kuYD-172">
          <mxGeometry x="252.855" y="18.695652173913043" width="94.52521739130435" height="121.52173913043478" as="geometry" />
        </mxCell>
        <mxCell id="EL_RIF5yjizPgl65kuYD-176" value="" style="endArrow=none;dashed=1;html=1;dashPattern=1 3;strokeWidth=4;rounded=0;" edge="1" parent="EL_RIF5yjizPgl65kuYD-187" source="EL_RIF5yjizPgl65kuYD-145">
          <mxGeometry width="50" height="50" relative="1" as="geometry">
            <mxPoint x="183.21428571428572" y="196.30434782608697" as="sourcePoint" />
            <mxPoint x="262.2857142857143" y="129.93478260869566" as="targetPoint" />
            <Array as="points">
              <mxPoint x="163.92857142857144" y="280.4347826086957" />
              <mxPoint x="298.92857142857144" y="233.69565217391306" />
              <mxPoint x="414.64285714285717" y="177.60869565217394" />
            </Array>
          </mxGeometry>
        </mxCell>
        <mxCell id="EL_RIF5yjizPgl65kuYD-177" value="" style="endArrow=none;dashed=1;html=1;dashPattern=1 3;strokeWidth=4;rounded=0;" edge="1" parent="EL_RIF5yjizPgl65kuYD-187" target="EL_RIF5yjizPgl65kuYD-149">
          <mxGeometry width="50" height="50" relative="1" as="geometry">
            <mxPoint x="173.57142857142858" y="280.4347826086957" as="sourcePoint" />
            <mxPoint x="271.92857142857144" y="139.2826086956522" as="targetPoint" />
          </mxGeometry>
        </mxCell>
        <mxCell id="EL_RIF5yjizPgl65kuYD-236" style="rounded=0;orthogonalLoop=1;jettySize=auto;html=1;exitX=0.5;exitY=0;exitDx=0;exitDy=0;entryX=0.273;entryY=0.996;entryDx=0;entryDy=0;entryPerimeter=0;strokeWidth=4;startArrow=classic;startFill=1;dashed=1;dashPattern=8 8;endSize=10;startSize=10;fillColor=#d5e8d4;gradientColor=#97d077;strokeColor=#82b366;" edge="1" parent="1" source="EL_RIF5yjizPgl65kuYD-224" target="EL_RIF5yjizPgl65kuYD-141">
          <mxGeometry relative="1" as="geometry" />
        </mxCell>
        <mxCell id="EL_RIF5yjizPgl65kuYD-237" value="" style="image;aspect=fixed;html=1;points=[];align=center;fontSize=12;image=img/lib/azure2/databases/Virtual_Clusters.svg;" vertex="1" parent="1">
          <mxGeometry x="410" y="-255.76" width="305" height="295.76" as="geometry" />
        </mxCell>
        <mxCell id="EL_RIF5yjizPgl65kuYD-239" style="rounded=0;orthogonalLoop=1;jettySize=auto;html=1;exitX=0.171;exitY=-0.081;exitDx=0;exitDy=0;strokeWidth=4;exitPerimeter=0;startArrow=classic;startFill=1;dashed=1;dashPattern=8 8;endSize=10;startSize=10;fillColor=#d5e8d4;gradientColor=#97d077;strokeColor=#82b366;" edge="1" parent="1" source="EL_RIF5yjizPgl65kuYD-149">
          <mxGeometry relative="1" as="geometry">
            <mxPoint x="-700" y="680" as="sourcePoint" />
            <mxPoint x="-91" y="70" as="targetPoint" />
          </mxGeometry>
        </mxCell>
        <mxCell id="EL_RIF5yjizPgl65kuYD-240" style="rounded=0;orthogonalLoop=1;jettySize=auto;html=1;exitX=0.5;exitY=0;exitDx=0;exitDy=0;strokeWidth=4;startArrow=classic;startFill=1;dashed=1;dashPattern=8 8;endSize=10;startSize=10;fillColor=#d5e8d4;gradientColor=#97d077;strokeColor=#82b366;" edge="1" parent="1" source="EL_RIF5yjizPgl65kuYD-202">
          <mxGeometry relative="1" as="geometry">
            <mxPoint x="-10" y="650" as="sourcePoint" />
            <mxPoint x="558" y="40" as="targetPoint" />
          </mxGeometry>
        </mxCell>
        <mxCell id="EL_RIF5yjizPgl65kuYD-241" style="rounded=0;orthogonalLoop=1;jettySize=auto;html=1;exitX=0.443;exitY=-0.016;exitDx=0;exitDy=0;strokeWidth=4;startArrow=classic;startFill=1;dashed=1;dashPattern=8 8;endSize=10;startSize=10;exitPerimeter=0;fillColor=#d5e8d4;gradientColor=#97d077;strokeColor=#82b366;" edge="1" parent="1" source="EL_RIF5yjizPgl65kuYD-202">
          <mxGeometry relative="1" as="geometry">
            <mxPoint x="-680" y="700" as="sourcePoint" />
            <mxPoint x="-30" y="80" as="targetPoint" />
          </mxGeometry>
        </mxCell>
        <mxCell id="EL_RIF5yjizPgl65kuYD-243" style="rounded=0;orthogonalLoop=1;jettySize=auto;html=1;exitX=-0.009;exitY=0.389;exitDx=0;exitDy=0;strokeWidth=4;exitPerimeter=0;startArrow=classic;startFill=1;dashed=1;dashPattern=8 8;endSize=10;startSize=10;fillColor=#fad7ac;strokeColor=#b46504;" edge="1" parent="1">
          <mxGeometry relative="1" as="geometry">
            <mxPoint x="-255.97500000000034" y="-120.70935999999983" as="sourcePoint" />
            <mxPoint x="-590" y="-120" as="targetPoint" />
          </mxGeometry>
        </mxCell>
        <mxCell id="EL_RIF5yjizPgl65kuYD-244" style="rounded=0;orthogonalLoop=1;jettySize=auto;html=1;strokeWidth=4;startArrow=classic;startFill=1;dashed=1;dashPattern=8 8;endSize=10;startSize=10;fillColor=#fad7ac;strokeColor=#b46504;" edge="1" parent="1">
          <mxGeometry relative="1" as="geometry">
            <mxPoint x="390" y="-120" as="sourcePoint" />
            <mxPoint x="70" y="-120" as="targetPoint" />
          </mxGeometry>
        </mxCell>
        <mxCell id="EL_RIF5yjizPgl65kuYD-245" style="rounded=0;orthogonalLoop=1;jettySize=auto;html=1;exitX=-0.009;exitY=0.389;exitDx=0;exitDy=0;strokeWidth=4;exitPerimeter=0;startArrow=classic;startFill=1;dashed=1;dashPattern=8 8;endSize=10;startSize=10;entryX=0.903;entryY=0.003;entryDx=0;entryDy=0;entryPerimeter=0;fillColor=#b1ddf0;strokeColor=#10739e;" edge="1" parent="1" target="EL_RIF5yjizPgl65kuYD-141">
          <mxGeometry relative="1" as="geometry">
            <mxPoint x="-225.97500000000034" y="-639.9993599999998" as="sourcePoint" />
            <mxPoint x="-560" y="-639.29" as="targetPoint" />
          </mxGeometry>
        </mxCell>
        <mxCell id="EL_RIF5yjizPgl65kuYD-246" style="rounded=0;orthogonalLoop=1;jettySize=auto;html=1;exitX=-0.009;exitY=0.389;exitDx=0;exitDy=0;strokeWidth=4;exitPerimeter=0;startArrow=classic;startFill=1;dashed=1;dashPattern=8 8;endSize=10;startSize=10;fillColor=#b1ddf0;strokeColor=#10739e;" edge="1" parent="1" target="EL_RIF5yjizPgl65kuYD-140">
          <mxGeometry relative="1" as="geometry">
            <mxPoint x="-90.97500000000034" y="-569.9993599999998" as="sourcePoint" />
            <mxPoint x="-470" y="-165" as="targetPoint" />
          </mxGeometry>
        </mxCell>
        <mxCell id="EL_RIF5yjizPgl65kuYD-247" style="rounded=0;orthogonalLoop=1;jettySize=auto;html=1;exitX=0.999;exitY=0.693;exitDx=0;exitDy=0;strokeWidth=4;exitPerimeter=0;startArrow=classic;startFill=1;dashed=1;dashPattern=8 8;endSize=10;startSize=10;entryX=0.903;entryY=0.003;entryDx=0;entryDy=0;entryPerimeter=0;fillColor=#b1ddf0;strokeColor=#10739e;" edge="1" parent="1" source="EL_RIF5yjizPgl65kuYD-137">
          <mxGeometry relative="1" as="geometry">
            <mxPoint x="789.0249999999996" y="-660.7593599999998" as="sourcePoint" />
            <mxPoint x="410" y="-255.76" as="targetPoint" />
          </mxGeometry>
        </mxCell>
        <mxCell id="EL_RIF5yjizPgl65kuYD-223" value="" style="group" vertex="1" connectable="0" parent="1">
          <mxGeometry x="-960" y="550" width="540" height="430" as="geometry" />
        </mxCell>
        <mxCell id="EL_RIF5yjizPgl65kuYD-224" value="" style="ellipse;whiteSpace=wrap;html=1;fillColor=#b1ddf0;strokeColor=#10739e;" vertex="1" parent="EL_RIF5yjizPgl65kuYD-223">
          <mxGeometry width="540" height="430" as="geometry" />
        </mxCell>
        <mxCell id="EL_RIF5yjizPgl65kuYD-225" value="" style="image;points=[];aspect=fixed;html=1;align=center;shadow=0;dashed=0;image=img/lib/allied_telesis/buildings/Medium_Business_Building.svg;" vertex="1" parent="EL_RIF5yjizPgl65kuYD-223">
          <mxGeometry x="66.42964285714285" y="102.82608695652175" width="94.5158695652174" height="121.52173913043478" as="geometry" />
        </mxCell>
        <mxCell id="EL_RIF5yjizPgl65kuYD-226" value="" style="image;points=[];aspect=fixed;html=1;align=center;shadow=0;dashed=0;image=img/lib/allied_telesis/buildings/Medium_Business_Building.svg;" vertex="1" parent="EL_RIF5yjizPgl65kuYD-223">
          <mxGeometry x="115.71428571428572" y="280.4347826086957" width="94.5158695652174" height="121.52173913043478" as="geometry" />
        </mxCell>
        <mxCell id="EL_RIF5yjizPgl65kuYD-227" value="" style="image;points=[];aspect=fixed;html=1;align=center;shadow=0;dashed=0;image=img/lib/allied_telesis/buildings/Medium_Business_Building.svg;" vertex="1" parent="EL_RIF5yjizPgl65kuYD-223">
          <mxGeometry x="260.35714285714283" y="205.6521739130435" width="87.25260869565219" height="112.17391304347827" as="geometry" />
        </mxCell>
        <mxCell id="EL_RIF5yjizPgl65kuYD-228" value="" style="image;points=[];aspect=fixed;html=1;align=center;shadow=0;dashed=0;image=img/lib/allied_telesis/buildings/Medium_Business_Building.svg;" vertex="1" parent="EL_RIF5yjizPgl65kuYD-223">
          <mxGeometry x="401.77928571428566" y="149.56521739130434" width="87.25260869565219" height="112.17391304347827" as="geometry" />
        </mxCell>
        <mxCell id="EL_RIF5yjizPgl65kuYD-229" value="" style="image;points=[];aspect=fixed;html=1;align=center;shadow=0;dashed=0;image=img/lib/allied_telesis/buildings/Medium_Business_Building.svg;" vertex="1" parent="EL_RIF5yjizPgl65kuYD-223">
          <mxGeometry x="252.855" y="18.695652173913043" width="94.52521739130435" height="121.52173913043478" as="geometry" />
        </mxCell>
        <mxCell id="EL_RIF5yjizPgl65kuYD-230" value="" style="endArrow=none;dashed=1;html=1;dashPattern=1 3;strokeWidth=4;rounded=0;" edge="1" parent="EL_RIF5yjizPgl65kuYD-223" target="EL_RIF5yjizPgl65kuYD-229">
          <mxGeometry width="50" height="50" relative="1" as="geometry">
            <mxPoint x="173.57142857142858" y="186.95652173913044" as="sourcePoint" />
            <mxPoint x="318.2142857142857" y="102.82608695652175" as="targetPoint" />
          </mxGeometry>
        </mxCell>
        <mxCell id="EL_RIF5yjizPgl65kuYD-231" value="" style="endArrow=none;dashed=1;html=1;dashPattern=1 3;strokeWidth=4;rounded=0;" edge="1" parent="1" source="EL_RIF5yjizPgl65kuYD-225">
          <mxGeometry width="50" height="50" relative="1" as="geometry">
            <mxPoint x="-776.7857142857142" y="746.304347826087" as="sourcePoint" />
            <mxPoint x="-697.7142857142858" y="679.9347826086956" as="targetPoint" />
            <Array as="points">
              <mxPoint x="-796.0714285714286" y="830.4347826086957" />
              <mxPoint x="-661.0714285714286" y="783.695652173913" />
              <mxPoint x="-545.3571428571429" y="727.608695652174" />
            </Array>
          </mxGeometry>
        </mxCell>
        <mxCell id="EL_RIF5yjizPgl65kuYD-232" value="" style="endArrow=none;dashed=1;html=1;dashPattern=1 3;strokeWidth=4;rounded=0;" edge="1" parent="1" target="EL_RIF5yjizPgl65kuYD-229">
          <mxGeometry width="50" height="50" relative="1" as="geometry">
            <mxPoint x="-786.4285714285714" y="830.4347826086957" as="sourcePoint" />
            <mxPoint x="-688.0714285714286" y="689.2826086956522" as="targetPoint" />
          </mxGeometry>
        </mxCell>
        <mxCell id="EL_RIF5yjizPgl65kuYD-273" value="" style="group" vertex="1" connectable="0" parent="1">
          <mxGeometry x="-1510" y="-1420" width="573" height="916.77" as="geometry" />
        </mxCell>
        <mxCell id="EL_RIF5yjizPgl65kuYD-251" value="" style="group;aspect=fixed;" vertex="1" connectable="0" parent="EL_RIF5yjizPgl65kuYD-273">
          <mxGeometry y="500" width="199" height="173.96" as="geometry" />
        </mxCell>
        <mxCell id="EL_RIF5yjizPgl65kuYD-252" value="" style="group" vertex="1" connectable="0" parent="EL_RIF5yjizPgl65kuYD-251">
          <mxGeometry width="198.99999999999986" height="173.96000000000006" as="geometry" />
        </mxCell>
        <mxCell id="EL_RIF5yjizPgl65kuYD-253" value="" style="ellipse;whiteSpace=wrap;html=1;fillColor=#b1ddf0;strokeColor=#10739e;" vertex="1" parent="EL_RIF5yjizPgl65kuYD-252">
          <mxGeometry width="198.99999999999986" height="173.96000000000006" as="geometry" />
        </mxCell>
        <mxCell id="EL_RIF5yjizPgl65kuYD-254" value="" style="image;points=[];aspect=fixed;html=1;align=center;shadow=0;dashed=0;image=img/lib/allied_telesis/buildings/Medium_Business_Building.svg;" vertex="1" parent="EL_RIF5yjizPgl65kuYD-252">
          <mxGeometry x="24.48055357142855" y="41.59913043478263" width="34.84754538280668" height="44.80447927766657" as="geometry" />
        </mxCell>
        <mxCell id="EL_RIF5yjizPgl65kuYD-255" value="" style="image;points=[];aspect=fixed;html=1;align=center;shadow=0;dashed=0;image=img/lib/allied_telesis/buildings/Medium_Business_Building.svg;" vertex="1" parent="EL_RIF5yjizPgl65kuYD-252">
          <mxGeometry x="42.64285714285711" y="113.45217391304354" width="34.84754538280668" height="44.80447927766657" as="geometry" />
        </mxCell>
        <mxCell id="EL_RIF5yjizPgl65kuYD-256" value="" style="image;points=[];aspect=fixed;html=1;align=center;shadow=0;dashed=0;image=img/lib/allied_telesis/buildings/Medium_Business_Building.svg;" vertex="1" parent="EL_RIF5yjizPgl65kuYD-252">
          <mxGeometry x="95.94642857142848" y="83.19826086956526" width="32.1696161213646" height="41.35798087169224" as="geometry" />
        </mxCell>
        <mxCell id="EL_RIF5yjizPgl65kuYD-257" value="" style="image;points=[];aspect=fixed;html=1;align=center;shadow=0;dashed=0;image=img/lib/allied_telesis/buildings/Medium_Business_Building.svg;" vertex="1" parent="EL_RIF5yjizPgl65kuYD-252">
          <mxGeometry x="148.06310714285704" y="60.507826086956534" width="32.1696161213646" height="41.35798087169224" as="geometry" />
        </mxCell>
        <mxCell id="EL_RIF5yjizPgl65kuYD-258" value="" style="image;points=[];aspect=fixed;html=1;align=center;shadow=0;dashed=0;image=img/lib/allied_telesis/buildings/Medium_Business_Building.svg;" vertex="1" parent="EL_RIF5yjizPgl65kuYD-252">
          <mxGeometry x="93.18174999999994" y="7.563478260869567" width="34.85099188121265" height="44.80447927766657" as="geometry" />
        </mxCell>
        <mxCell id="EL_RIF5yjizPgl65kuYD-259" value="" style="endArrow=none;dashed=1;html=1;dashPattern=1 3;strokeWidth=4;rounded=0;" edge="1" parent="EL_RIF5yjizPgl65kuYD-252" target="EL_RIF5yjizPgl65kuYD-258">
          <mxGeometry width="50" height="50" relative="1" as="geometry">
            <mxPoint x="63.96428571428567" y="75.63478260869569" as="sourcePoint" />
            <mxPoint x="117.26785714285708" y="41.59913043478263" as="targetPoint" />
          </mxGeometry>
        </mxCell>
        <mxCell id="EL_RIF5yjizPgl65kuYD-260" value="" style="endArrow=none;dashed=1;html=1;dashPattern=1 3;strokeWidth=4;rounded=0;" edge="1" parent="EL_RIF5yjizPgl65kuYD-251" source="EL_RIF5yjizPgl65kuYD-254">
          <mxGeometry width="50" height="50" relative="1" as="geometry">
            <mxPoint x="67.51785714285707" y="79.41652173913049" as="sourcePoint" />
            <mxPoint x="96.6571428571428" y="52.56617391304351" as="targetPoint" />
            <Array as="points">
              <mxPoint x="60.410714285714256" y="113.45217391304354" />
              <mxPoint x="110.16071428571418" y="94.54347826086959" />
              <mxPoint x="152.80357142857133" y="71.85304347826084" />
            </Array>
          </mxGeometry>
        </mxCell>
        <mxCell id="EL_RIF5yjizPgl65kuYD-261" value="" style="endArrow=none;dashed=1;html=1;dashPattern=1 3;strokeWidth=4;rounded=0;" edge="1" parent="EL_RIF5yjizPgl65kuYD-251" target="EL_RIF5yjizPgl65kuYD-258">
          <mxGeometry width="50" height="50" relative="1" as="geometry">
            <mxPoint x="63.96428571428567" y="113.45217391304354" as="sourcePoint" />
            <mxPoint x="100.21071428571423" y="56.34791304347827" as="targetPoint" />
          </mxGeometry>
        </mxCell>
        <mxCell id="EL_RIF5yjizPgl65kuYD-262" value="" style="endArrow=none;dashed=1;html=1;dashPattern=1 3;strokeWidth=4;rounded=0;exitX=0.978;exitY=0.888;exitDx=0;exitDy=0;exitPerimeter=0;" edge="1" parent="EL_RIF5yjizPgl65kuYD-251" source="EL_RIF5yjizPgl65kuYD-254">
          <mxGeometry width="50" height="50" relative="1" as="geometry">
            <mxPoint x="74.62499999999997" y="86.98000000000003" as="sourcePoint" />
            <mxPoint x="145.69642857142847" y="71.85304347826084" as="targetPoint" />
          </mxGeometry>
        </mxCell>
        <mxCell id="EL_RIF5yjizPgl65kuYD-263" value="" style="image;aspect=fixed;html=1;points=[];align=center;fontSize=12;image=img/lib/azure2/app_services/API_Management_Services.svg;" vertex="1" parent="EL_RIF5yjizPgl65kuYD-273">
          <mxGeometry width="183.49" height="170" as="geometry" />
        </mxCell>
        <mxCell id="EL_RIF5yjizPgl65kuYD-264" value="" style="image;aspect=fixed;html=1;points=[];align=center;fontSize=12;image=img/lib/azure2/databases/Virtual_Clusters.svg;" vertex="1" parent="EL_RIF5yjizPgl65kuYD-273">
          <mxGeometry x="13" y="240" width="183.06" height="177.52" as="geometry" />
        </mxCell>
        <mxCell id="EL_RIF5yjizPgl65kuYD-266" value="" style="image;points=[];aspect=fixed;html=1;align=center;shadow=0;dashed=0;image=img/lib/allied_telesis/buildings/Medium_Business_Building.svg;" vertex="1" parent="EL_RIF5yjizPgl65kuYD-273">
          <mxGeometry x="38.5" y="760" width="122" height="156.77" as="geometry" />
        </mxCell>
        <mxCell id="EL_RIF5yjizPgl65kuYD-267" value="&lt;font style=&quot;font-size: 42px;&quot;&gt;Edge Server&lt;/font&gt;" style="text;html=1;align=center;verticalAlign=middle;whiteSpace=wrap;rounded=0;fontSize=38;" vertex="1" parent="EL_RIF5yjizPgl65kuYD-273">
          <mxGeometry x="243" y="273.76" width="320" height="110" as="geometry" />
        </mxCell>
        <mxCell id="EL_RIF5yjizPgl65kuYD-268" value="&lt;font style=&quot;font-size: 42px;&quot;&gt;Cloud Center&lt;/font&gt;" style="text;html=1;align=center;verticalAlign=middle;whiteSpace=wrap;rounded=0;fontSize=38;" vertex="1" parent="EL_RIF5yjizPgl65kuYD-273">
          <mxGeometry x="243" y="30" width="320" height="110" as="geometry" />
        </mxCell>
        <mxCell id="EL_RIF5yjizPgl65kuYD-269" value="&lt;font style=&quot;font-size: 42px;&quot;&gt;Community&lt;/font&gt;" style="text;html=1;align=center;verticalAlign=middle;whiteSpace=wrap;rounded=0;fontSize=38;" vertex="1" parent="EL_RIF5yjizPgl65kuYD-273">
          <mxGeometry x="253" y="531.98" width="320" height="110" as="geometry" />
        </mxCell>
        <mxCell id="EL_RIF5yjizPgl65kuYD-271" value="&lt;font style=&quot;font-size: 42px;&quot;&gt;Floor&lt;/font&gt;" style="text;html=1;align=center;verticalAlign=middle;whiteSpace=wrap;rounded=0;fontSize=38;" vertex="1" parent="EL_RIF5yjizPgl65kuYD-273">
          <mxGeometry x="253" y="783.38" width="320" height="110" as="geometry" />
        </mxCell>
      </root>
    </mxGraphModel>
  </diagram>
</mxfile>
